<?xml version="1.0" encoding="utf-8"?>
<?xml-stylesheet type="text/xsl" href="rss1.xsl"?>
<rss version="2.0" xmlns:atom="http://www.w3.org/2005/Atom" xmlns:content="http://purl.org/rss/1.0/modules/content/" xmlns:dc="http://purl.org/dc/elements/1.1/" xmlns:media="http://search.yahoo.com/mrss/">
<channel>
 <title>Getty</title>
 <link>http://www.gettyimg.com/</link>
 <atom:link href="http://www.gettyimg.com/" rel="self" type="application/rss+xml" />

 
                <item>
                <title><![CDATA[【Singles (lossless)】FLAC - Farruko, Kairo Worship - Hermoso Momento (Remix) [16 bits / 44.1 kHz]]]></title>
                <link><![CDATA[https://sharemania.us/threads/farruko-kairo-worship-hermoso-momento-remix-16-bits-44-1-khz.235651/]]></link>
                <description><![CDATA[<article>
<blockquote class="messageText SelectQuoteContainer ugc baseHtml">
<span style="font-size: 22px"><b>Farruko, Kairo Worship - Hermoso Momento (Remix)<br>
16 bits 44.1 kHz<br>
FLAC</b></span><br>
<br>
<img src="https://i.postimg.cc/mk1xKfx8/196922698736-Cover.jpg" class="bbCodeImage LbImage" alt="[​IMG]" data-url="https://i.postimg.cc/mk1xKfx8/196922698736-Cover.jpg" style=""> <br>
<br>
<span style="font-size: 22px">Download:</span><br>
<div class="bbCodeBlock bbCodeVfcHH HiddenContent">
<div class="attribution type">Hidden Content:</div>
<blockquote>You must either reply or click 'Like' to see the hidden information contained here.</blockquote>
</div>
<div class="messageTextEndMarker">&nbsp;</div>
</blockquote>
</article>]]></description>
                <author><![CDATA[RetroBeatFM]]></author>
                </item>

                
                <item>
                <title><![CDATA[【Cinema Center】SERIES - Mickey Mouse Funhouse - Season 1 - 1080p Disney+ WEB-DL AAC2.0 H.264-LAZY]]></title>
                <link><![CDATA[https://sharemania.us/threads/mickey-mouse-funhouse-season-1-1080p-disney-web-dl-aac2-0-h-264-lazy.235650/]]></link>
                <description><![CDATA[<article>
<blockquote class="messageText SelectQuoteContainer ugc baseHtml">
Mickey Mouse Funhouse:<img src="https://cdn2.broadcasthe.net/tvdb/banners/v4/series/405715/banners/645957d66975b.jpg" class="bbCodeImage LbImage" alt="[​IMG]" data-url="https://cdn2.broadcasthe.net/tvdb/banners/v4/series/405715/banners/645957d66975b.jpg" style=""> <br>
<br>
<div class="bbCodeBlock bbCodeQuote">
<aside>
<blockquote class="quoteContainer"><div class="quote"><i><b>Synopsis:</b></i><br>
Mickey Mouse, and his friends – Minnie, Goofy, Donald, Daisy and Pluto – meet Funny, an enchanted talking playhouse, who takes the Sensational Six on adventures of all types to unique worlds that inspire the imagination.</div><div class="quoteExpand">Click to expand...</div></blockquote>
</aside>
</div>
<div class="ToggleTriggerAnchor bbCodeSpoilerContainer">
<button type="button" class="button bbCodeSpoilerButton ToggleTrigger Tooltip JsOnly" data-target="> .SpoilerTarget"><span>Spoiler: <span class="SpoilerTitle">MediaInfo</span></span></button>
<div class="SpoilerTarget bbCodeSpoilerText">General<br>
Unique ID : 173047559920462083009213923726254312542 (0x822FBF6C3E06963BE3B22CD8FECE8C5E)<br>
Complete name : Mickey.Mouse.Funhouse.S01E01E02.Homesick.-.Goldfish.Goofy.1080p.DSNP.WEB-DL.AAC2.0.H.264-LAZY.mkv<br>
Format : Matroska<br>
Format version : Version 4<br>
File size : 1.25 GiB<br>
Duration : 24 min 1 s<br>
Overall bit rate mode : Variable<br>
Overall bit rate : 7 472 kb/s<br>
Frame rate : 23.976 FPS<br>
Encoded date : 2024-01-11 18:43:31 UTC<br>
Writing application : mkvmerge v82.0 ('I'm The President') 64-bit<br>
Writing library : libebml v1.4.5 + libmatroska v1.7.1<br>
<br>
Video<br>
ID : 1<br>
Format : AVC<br>
Format/Info : Advanced Video Codec<br>
Format profile : High@L4<br>
Format settings : CABAC / 4 Ref Frames<br>
Format settings, CABAC : Yes<br>
Format settings, Reference frames : 4 frames<br>
Codec ID : V_MPEG4/ISO/AVC<br>
Duration : 24 min 1 s<br>
Bit rate mode : Variable<br>
Bit rate : 7 341 kb/s<br>
Maximum bit rate : 12.7 Mb/s<br>
Width : 1 920 pixels<br>
Height : 1 080 pixels<br>
Display aspect ratio : 16:9<br>
Frame rate mode : Constant<br>
Frame rate : 23.976 (24000/1001) FPS<br>
Color space : YUV<br>
Chroma subsampling : 4:2:0<br>
Bit depth : 8 bits<br>
Scan type : Progressive<br>
Bits/(Pixel*Frame) : 0.148<br>
Stream size : 1.23 GiB (98%)<br>
Default : Yes<br>
Forced : No<br>
Color range : Limited<br>
Color primaries : BT.709<br>
Transfer characteristics : BT.709<br>
Matrix coefficients : BT.709<br>
<br>
Audio<br>
ID : 2<br>
Format : AAC LC<br>
Format/Info : Advanced Audio Codec Low Complexity<br>
Codec ID : A_AAC-2<br>
Duration : 24 min 1 s<br>
Bit rate : 125 kb/s<br>
Channel(s) : 2 channels<br>
Channel layout : L R<br>
Sampling rate : 48.0 kHz<br>
Frame rate : 46.875 FPS (1024 SPF)<br>
Compression mode : Lossy<br>
Stream size : 21.5 MiB (2%)<br>
Language : English<br>
Default : Yes<br>
Forced : No<br>
<br>
Text #1<br>
ID : 3<br>
Format : UTF-8<br>
Codec ID : S_TEXT/UTF8<br>
Codec ID/Info : UTF-8 Plain Text<br>
Duration : 23 min 35 s<br>
Bit rate : 86 b/s<br>
Frame rate : 0.340 FPS<br>
Count of elements : 482<br>
Stream size : 15.0 KiB (0%)<br>
Title : SDH<br>
Language : English<br>
Default : No<br>
Forced : No<br>
<br>
Text #2<br>
ID : 4<br>
Format : UTF-8<br>
Codec ID : S_TEXT/UTF8<br>
Codec ID/Info : UTF-8 Plain Text<br>
Duration : 23 min 57 s<br>
Bit rate : 60 b/s<br>
Frame rate : 0.230 FPS<br>
Count of elements : 330<br>
Stream size : 10.5 KiB (0%)<br>
Language : Danish<br>
Default : No<br>
Forced : No<br>
<br>
Text #3<br>
ID : 5<br>
Format : UTF-8<br>
Codec ID : S_TEXT/UTF8<br>
Codec ID/Info : UTF-8 Plain Text<br>
Duration : 22 min 45 s<br>
Bit rate : 66 b/s<br>
Frame rate : 0.235 FPS<br>
Count of elements : 321<br>
Stream size : 11.1 KiB (0%)<br>
Language : German<br>
Default : No<br>
Forced : No<br>
<br>
Text #4<br>
ID : 6<br>
Format : UTF-8<br>
Codec ID : S_TEXT/UTF8<br>
Codec ID/Info : UTF-8 Plain Text<br>
Duration : 23 min 29 s<br>
Bit rate : 70 b/s<br>
Frame rate : 0.297 FPS<br>
Count of elements : 418<br>
Stream size : 12.0 KiB (0%)<br>
Title : Latin American<br>
Language : Spanish<br>
Default : No<br>
Forced : No<br>
<br>
Text #5<br>
ID : 7<br>
Format : UTF-8<br>
Codec ID : S_TEXT/UTF8<br>
Codec ID/Info : UTF-8 Plain Text<br>
Duration : 23 min 30 s<br>
Bit rate : 81 b/s<br>
Frame rate : 0.292 FPS<br>
Count of elements : 412<br>
Stream size : 14.0 KiB (0%)<br>
Title : European (SDH)<br>
Language : Spanish<br>
Default : No<br>
Forced : No<br>
<br>
Text #6<br>
ID : 8<br>
Format : UTF-8<br>
Codec ID : S_TEXT/UTF8<br>
Codec ID/Info : UTF-8 Plain Text<br>
Duration : 23 min 34 s<br>
Bit rate : 58 b/s<br>
Frame rate : 0.209 FPS<br>
Count of elements : 295<br>
Stream size : 10.1 KiB (0%)<br>
Language : Finnish<br>
Default : No<br>
Forced : No<br>
<br>
Text #7<br>
ID : 9<br>
Format : UTF-8<br>
Codec ID : S_TEXT/UTF8<br>
Codec ID/Info : UTF-8 Plain Text<br>
Duration : 23 min 50 s<br>
Bit rate : 68 b/s<br>
Frame rate : 0.297 FPS<br>
Count of elements : 424<br>
Stream size : 12.0 KiB (0%)<br>
Language : French<br>
Default : No<br>
Forced : No<br>
<br>
Text #8<br>
ID : 10<br>
Format : UTF-8<br>
Codec ID : S_TEXT/UTF8<br>
Codec ID/Info : UTF-8 Plain Text<br>
Duration : 23 min 58 s<br>
Bit rate : 67 b/s<br>
Frame rate : 0.287 FPS<br>
Count of elements : 413<br>
Stream size : 11.9 KiB (0%)<br>
Language : Hungarian<br>
Default : No<br>
Forced : No<br>
<br>
Text #9<br>
ID : 11<br>
Format : UTF-8<br>
Codec ID : S_TEXT/UTF8<br>
Codec ID/Info : UTF-8 Plain Text<br>
Duration : 23 min 34 s<br>
Bit rate : 67 b/s<br>
Frame rate : 0.235 FPS<br>
Count of elements : 332<br>
Stream size : 11.7 KiB (0%)<br>
Language : Italian<br>
Default : No<br>
Forced : No<br>
<br>
Text #10<br>
ID : 12<br>
Format : UTF-8<br>
Codec ID : S_TEXT/UTF8<br>
Codec ID/Info : UTF-8 Plain Text<br>
Duration : 23 min 58 s<br>
Bit rate : 79 b/s<br>
Frame rate : 0.305 FPS<br>
Count of elements : 439<br>
Stream size : 14.0 KiB (0%)<br>
Language : Japanese<br>
Default : No<br>
Forced : No<br>
<br>
Text #11<br>
ID : 13<br>
Format : UTF-8<br>
Codec ID : S_TEXT/UTF8<br>
Codec ID/Info : UTF-8 Plain Text<br>
Duration : 23 min 58 s<br>
Bit rate : 75 b/s<br>
Frame rate : 0.296 FPS<br>
Count of elements : 425<br>
Stream size : 13.2 KiB (0%)<br>
Language : Korean<br>
Default : No<br>
Forced : No<br>
<br>
Text #12<br>
ID : 14<br>
Format : UTF-8<br>
Codec ID : S_TEXT/UTF8<br>
Codec ID/Info : UTF-8 Plain Text<br>
Duration : 23 min 34 s<br>
Bit rate : 67 b/s<br>
Frame rate : 0.237 FPS<br>
Count of elements : 335<br>
Stream size : 11.6 KiB (0%)<br>
Language : Dutch<br>
Default : No<br>
Forced : No<br>
<br>
Text #13<br>
ID : 15<br>
Format : UTF-8<br>
Codec ID : S_TEXT/UTF8<br>
Codec ID/Info : UTF-8 Plain Text<br>
Duration : 23 min 35 s<br>
Bit rate : 60 b/s<br>
Frame rate : 0.230 FPS<br>
Count of elements : 326<br>
Stream size : 10.4 KiB (0%)<br>
Language : Norwegian<br>
Default : No<br>
Forced : No<br>
<br>
Text #14<br>
ID : 16<br>
Format : UTF-8<br>
Codec ID : S_TEXT/UTF8<br>
Codec ID/Info : UTF-8 Plain Text<br>
Duration : 23 min 56 s<br>
Bit rate : 57 b/s<br>
Frame rate : 0.246 FPS<br>
Count of elements : 353<br>
Stream size : 10.1 KiB (0%)<br>
Language : Polish<br>
Default : No<br>
Forced : No<br>
<br>
Text #15<br>
ID : 17<br>
Format : UTF-8<br>
Codec ID : S_TEXT/UTF8<br>
Codec ID/Info : UTF-8 Plain Text<br>
Duration : 23 min 29 s<br>
Bit rate : 70 b/s<br>
Frame rate : 0.291 FPS<br>
Count of elements : 410<br>
Stream size : 12.1 KiB (0%)<br>
Title : Brazilian<br>
Language : Portuguese<br>
Default : No<br>
Forced : No<br>
<br>
Text #16<br>
ID : 18<br>
Format : UTF-8<br>
Codec ID : S_TEXT/UTF8<br>
Codec ID/Info : UTF-8 Plain Text<br>
Duration : 23 min 30 s<br>
Bit rate : 78 b/s<br>
Frame rate : 0.279 FPS<br>
Count of elements : 393<br>
Stream size : 13.5 KiB (0%)<br>
Title : European (SDH)<br>
Language : Portuguese<br>
Default : No<br>
Forced : No<br>
<br>
Text #17<br>
ID : 19<br>
Format : UTF-8<br>
Codec ID : S_TEXT/UTF8<br>
Codec ID/Info : UTF-8 Plain Text<br>
Duration : 23 min 35 s<br>
Bit rate : 62 b/s<br>
Frame rate : 0.233 FPS<br>
Count of elements : 330<br>
Stream size : 10.8 KiB (0%)<br>
Language : Swedish<br>
Default : No<br>
Forced : No<br>
<br>
Text #18<br>
ID : 20<br>
Format : UTF-8<br>
Codec ID : S_TEXT/UTF8<br>
Codec ID/Info : UTF-8 Plain Text<br>
Duration : 23 min 56 s<br>
Bit rate : 72 b/s<br>
Frame rate : 0.244 FPS<br>
Count of elements : 351<br>
Stream size : 12.6 KiB (0%)<br>
Language : Turkish<br>
Default : No<br>
Forced : No<br>
<br>
Text #19<br>
ID : 21<br>
Format : UTF-8<br>
Codec ID : S_TEXT/UTF8<br>
Codec ID/Info : UTF-8 Plain Text<br>
Duration : 23 min 58 s<br>
Bit rate : 55 b/s<br>
Frame rate : 0.284 FPS<br>
Count of elements : 409<br>
Stream size : 9.67 KiB (0%)<br>
Title : Traditional, Hong Kong<br>
Language : Chinese<br>
Default : No<br>
Forced : No<br>
<br>
Text #20<br>
ID : 22<br>
Format : UTF-8<br>
Codec ID : S_TEXT/UTF8<br>
Codec ID/Info : UTF-8 Plain Text<br>
Duration : 23 min 58 s<br>
Bit rate : 67 b/s<br>
Frame rate : 0.293 FPS<br>
Count of elements : 422<br>
Stream size : 11.9 KiB (0%)<br>
Title : Simplified<br>
Language : Chinese<br>
Default : No<br>
Forced : No<br>
<br>
Text #21<br>
ID : 23<br>
Format : UTF-8<br>
Codec ID : S_TEXT/UTF8<br>
Codec ID/Info : UTF-8 Plain Text<br>
Duration : 23 min 58 s<br>
Bit rate : 63 b/s<br>
Frame rate : 0.280 FPS<br>
Count of elements : 403<br>
Stream size : 11.1 KiB (0%)<br>
Title : Traditional<br>
Language : Chinese<br>
Default : No<br>
Forced : No<br>
<br>
Menu<br>
00:00:00.042 : en:Intro<br>
00:00:49.007 : en:Scene 1<br>
00:11:29.731 : en:Scene 2<br>
00:12:30.417 : en:Scene 3<br>
00:23:32.454 : en:Credits</div>
</div><br>
Screenshots:<br>
<img src="https://i.imgur.com/p1kz8HC.jpg" class="bbCodeImage LbImage" alt="[​IMG]" data-url="https://i.imgur.com/p1kz8HC.jpg" style=""> <br>
<br>
<div class="bbCodeBlock bbCodeVfcHH HiddenContent">
<div class="attribution type">Hidden Content:</div>
<blockquote>You must either reply or click 'Like' to see the hidden information contained here.</blockquote>
</div>
<div class="messageTextEndMarker">&nbsp;</div>
</blockquote>
</article>]]></description>
                <author><![CDATA[LazyRips]]></author>
                </item>

                </channel></rss>